{
  "source": "C:\\Users\\Peter\\Desktop\\stuff\\MIUN\\quantitative_research\\video_compression\\videos\\UVG\\YachtRide_1920x1080_120fps_420_8bit_YUV.y4m",
  "output": "C:\\Users\\Peter\\Desktop\\stuff\\MIUN\\quantitative_research\\video_compression\\compressed_videos\\UVG\\h264\\2\\YachtRide_1920x1080_120fps_420_8bit_YUV_h264.mp4",
  "codec": "h264",
  "ok": "[yuv4mpegpipe @ 000001c05fdf5e00] Stream #0: not enough frames to estimate rate; consider increasing probesize\nInput #0, yuv4mpegpipe, from 'C:\\Users\\Peter\\Desktop\\stuff\\MIUN\\quantitative_research\\video_compression\\videos\\UVG\\YachtRide_1920x1080_120fps_420_8bit_YUV.y4m':\n  Duration: 00:00:05.00, start: 0.000000, bitrate: 2985989 kb/s\n  Stream #0:0: Video: rawvideo (I420 / 0x30323449), yuv420p(progressive), 1920x1080, 120 fps, 120 tbr, 120 tbn\n[out#0/mp4 @ 000001c05fdfa600] Codec AVOption b:a (set bitrate (in bits/s)) has not been used for any stream. The most likely reason is either wrong type (e.g. a video option with no video streams) or that it is a private option of some decoder which was not actually used for any stream.\nStream mapping:\n  Stream #0:0 -> #0:0 (rawvideo (native) -> h264 (libx264))\nPress [q] to stop, [?] for help\n[libx264 @ 000001c05fdfca80] using cpu capabilities: MMX2 SSE2Fast SSSE3 SSE4.2 AVX FMA3 BMI2 AVX2\n[libx264 @ 000001c05fdfca80] profile High, level 5.1, 4:2:0, 8-bit\n[libx264 @ 000001c05fdfca80] 264 - core 165 r3222 b35605a - H.264/MPEG-4 AVC codec - Copyleft 2003-2025 - http://www.videolan.org/x264.html - options: cabac=1 ref=5 deblock=1:0:0 analyse=0x3:0x113 me=hex subme=8 psy=1 psy_rd=1.00:0.00 mixed_ref=1 me_range=16 chroma_me=1 trellis=2 8x8dct=1 cqm=0 deadzone=21,11 fast_pskip=1 chroma_qp_offset=-2 threads=18 lookahead_threads=3 sliced_threads=0 nr=0 decimate=1 interlaced=0 bluray_compat=0 constrained_intra=0 bframes=3 b_pyramid=2 b_adapt=1 b_bias=0 direct=3 weightb=1 open_gop=0 weightp=2 keyint=250 keyint_min=25 scenecut=40 intra_refresh=0 rc_lookahead=50 rc=cbr mbtree=1 bitrate=2000 ratetol=1.0 qcomp=0.60 qpmin=0 qpmax=69 qpstep=4 vbv_maxrate=2000 vbv_bufsize=2000 nal_hrd=none filler=0 ip_ratio=1.40 aq=1:1.00\nOutput #0, mp4, to 'C:\\Users\\Peter\\Desktop\\stuff\\MIUN\\quantitative_research\\video_compression\\compressed_videos\\UVG\\h264\\2\\YachtRide_1920x1080_120fps_420_8bit_YUV_h264.mp4':\n  Metadata:\n    encoder         : Lavf62.3.100\n  Stream #0:0: Video: h264 (avc1 / 0x31637661), yuv420p(tv, progressive), 1920x1080, q=2-31, 2000 kb/s, 120 fps, 15360 tbn\n    Metadata:\n      encoder         : Lavc62.11.100 libx264\n    Side data:\n      cpb: bitrate max/min/avg: 2000000/0/2000000 buffer size: 2000000 vbv_delay: N/A\nframe=    0 fps=0.0 q=0.0 size=       0KiB time=N/A bitrate=N/A speed=N/A elapsed=0:00:00.52    \nframe=    0 fps=0.0 q=0.0 size=       0KiB time=N/A bitrate=N/A speed=N/A elapsed=0:00:01.03    \nframe=   20 fps= 13 q=49.0 size=       0KiB time=00:00:00.14 bitrate=   2.7kbits/s speed=0.0915x elapsed=0:00:01.54    \nframe=   44 fps= 21 q=47.0 size=       0KiB time=00:00:00.35 bitrate=   1.1kbits/s speed=0.169x elapsed=0:00:02.07    \nframe=   68 fps= 26 q=47.0 size=       0KiB time=00:00:00.55 bitrate=   0.7kbits/s speed=0.212x elapsed=0:00:02.59    \nframe=   99 fps= 32 q=47.0 size=       0KiB time=00:00:00.79 bitrate=   0.5kbits/s speed=0.255x elapsed=0:00:03.10    \nframe=  128 fps= 35 q=47.0 size=       0KiB time=00:00:01.05 bitrate=   0.4kbits/s speed=0.29x elapsed=0:00:03.61    \nframe=  159 fps= 38 q=48.0 size=     256KiB time=00:00:01.30 bitrate=1613.5kbits/s speed=0.315x elapsed=0:00:04.13    \nframe=  188 fps= 40 q=48.0 size=     256KiB time=00:00:01.55 bitrate=1353.2kbits/s speed=0.334x elapsed=0:00:04.64    \nframe=  216 fps= 42 q=48.0 size=     256KiB time=00:00:01.78 bitrate=1176.2kbits/s speed=0.346x elapsed=0:00:05.15    \nframe=  233 fps= 41 q=48.0 size=     256KiB time=00:00:01.92 bitrate=1089.6kbits/s speed=0.339x elapsed=0:00:05.67    \nframe=  256 fps= 41 q=49.0 size=     512KiB time=00:00:02.10 bitrate=1989.6kbits/s speed=0.341x elapsed=0:00:06.19    \nframe=  282 fps= 42 q=49.0 size=     512KiB time=00:00:02.33 bitrate=1797.7kbits/s speed=0.348x elapsed=0:00:06.70    \nframe=  310 fps= 43 q=49.0 size=     512KiB time=00:00:02.56 bitrate=1634.3kbits/s speed=0.355x elapsed=0:00:07.22    \nframe=  338 fps= 44 q=49.0 size=     512KiB time=00:00:02.80 bitrate=1498.1kbits/s speed=0.362x elapsed=0:00:07.74    \nframe=  362 fps= 44 q=49.0 size=     512KiB time=00:00:03.00 bitrate=1398.2kbits/s speed=0.363x elapsed=0:00:08.25    \nframe=  390 fps= 44 q=49.0 size=     768KiB time=00:00:03.23 bitrate=1945.9kbits/s speed=0.368x elapsed=0:00:08.77    \nframe=  418 fps= 45 q=49.0 size=     768KiB time=00:00:03.46 bitrate=1815.0kbits/s speed=0.373x elapsed=0:00:09.30    \nframe=  442 fps= 45 q=49.0 size=     768KiB time=00:00:03.66 bitrate=1716.0kbits/s speed=0.374x elapsed=0:00:09.81    \nframe=  466 fps= 45 q=49.0 size=     768KiB time=00:00:03.86 bitrate=1627.2kbits/s speed=0.374x elapsed=0:00:10.33    \nframe=  483 fps= 44 q=49.0 size=     768KiB time=00:00:04.00 bitrate=1569.7kbits/s speed=0.369x elapsed=0:00:10.85    \nframe=  500 fps= 44 q=49.0 size=     768KiB time=00:00:04.15 bitrate=1516.1kbits/s speed=0.365x elapsed=0:00:11.36    \nframe=  528 fps= 44 q=49.0 size=    1024KiB time=00:00:04.38 bitrate=1913.8kbits/s speed=0.369x elapsed=0:00:11.88    \nframe=  587 fps= 47 q=-1.0 size=    1024KiB time=00:00:04.87 bitrate=1720.8kbits/s speed=0.393x elapsed=0:00:12.40    \n[mp4 @ 000001c05fdfb700] Starting second pass: moving the moov atom to the beginning of the file\n[out#0/mp4 @ 000001c05fdfa600] video:1189KiB audio:0KiB subtitle:0KiB other streams:0KiB global headers:0KiB muxing overhead: 0.661892%\nframe=  600 fps= 48 q=-1.0 Lsize=    1197KiB time=00:00:04.98 bitrate=1967.6kbits/s speed=0.399x elapsed=0:00:12.49    \n[libx264 @ 000001c05fdfca80] frame I:3     Avg QP:43.14  size: 13864\n[libx264 @ 000001c05fdfca80] frame P:151   Avg QP:45.85  size:  3865\n[libx264 @ 000001c05fdfca80] frame B:446   Avg QP:47.43  size:  1327\n[libx264 @ 000001c05fdfca80] consecutive B-frames:  0.8%  0.0%  0.5% 98.7%\n[libx264 @ 000001c05fdfca80] mb I  I16..4: 42.9% 56.3%  0.8%\n[libx264 @ 000001c05fdfca80] mb P  I16..4:  1.9%  1.1%  0.0%  P16..4: 19.6%  0.8%  0.9%  0.0%  0.0%    skip:75.7%\n[libx264 @ 000001c05fdfca80] mb B  I16..4:  0.0%  0.0%  0.0%  B16..8: 18.0%  0.1%  0.0%  direct: 0.0%  skip:81.8%  L0:28.9% L1:71.1% BI: 0.0%\n[libx264 @ 000001c05fdfca80] 8x8 transform intra:43.7% inter:98.3%\n[libx264 @ 000001c05fdfca80] direct mvs  spatial:97.8% temporal:2.2%\n[libx264 @ 000001c05fdfca80] coded y,uvDC,uvAC intra: 7.3% 16.2% 1.1% inter: 0.4% 0.6% 0.0%\n[libx264 @ 000001c05fdfca80] i16 v,h,dc,p: 19% 59%  4% 18%\n[libx264 @ 000001c05fdfca80] i8 v,h,dc,ddl,ddr,vr,hd,vl,hu: 10% 15% 45%  3%  6%  3%  8%  2%  9%\n[libx264 @ 000001c05fdfca80] i4 v,h,dc,ddl,ddr,vr,hd,vl,hu:  9% 19% 18%  6% 10%  7% 12%  5% 13%\n[libx264 @ 000001c05fdfca80] i8c dc,h,v,p: 77% 21%  2%  0%\n[libx264 @ 000001c05fdfca80] Weighted P-Frames: Y:0.0% UV:0.0%\n[libx264 @ 000001c05fdfca80] ref P L0: 58.2%  2.7% 23.5%  6.6%  8.9%\n[libx264 @ 000001c05fdfca80] ref B L0: 81.0% 13.6%  4.0%  1.3%\n[libx264 @ 000001c05fdfca80] ref B L1: 93.9%  6.1%\n[libx264 @ 000001c05fdfca80] kb/s:1946.89\n",
  "seconds": 12.655693292617798,
  "probe_out": {}
}